# xmcd
# 
# Track frame offsets:
#     150
#     18087
#     36480
#     56560
#     74905
#     96467
#     122662
#     140862
#     162547
#     178482
#     201817
#     224910
#     251095
#     272665
#     296462
# 
# Disc length: 4130
# 
# Revision: 1
# Processed by: cddbd v1.5.2PL0 Copyright (c) Steve Scherf et al.
# Submitted via: fre:ac v1.0.31
# 
DISCID=0510200f
DTITLE=Diana Krall - The Girl In The Other Room
DYEAR=2005
DGENRE=Jazz
TTITLE0=Stop This World
TTITLE1=The Girl in the Other Room
TTITLE2=Temptation
TTITLE3=Almost Blue
TTITLE4=I've Changed My Address
TTITLE5=Love Me Like a Man
TTITLE6=I'm Pulling Through
TTITLE7=Black Crow
TTITLE8=Narrow Daylight
TTITLE9=Abandoned Masquerade
TTITLE10=I'm Coming Through
TTITLE11=Departure Bay
TTITLE12=I'll Never Be the Same
TTITLE13=Sometimes I Just Freak Out
TTITLE14=Fake Tin Star
EXTD=YEAR: 2005
EXTT0=
EXTT1=
EXTT2=
EXTT3=
EXTT4=
EXTT5=
EXTT6=
EXTT7=
EXTT8=
EXTT9=
EXTT10=
EXTT11=
EXTT12=
EXTT13=
EXTT14=
PLAYORDER=
